<?xml version="1.0" standalone="no"?>
<!DOCTYPE svg PUBLIC "-//W3C//DTD SVG 1.1//EN" "http://www.w3.org/Graphics/SVG/1.1/DTD/svg11.dtd">
<!--Generator: Xara Designer (www.xara.com), SVG filter version: 6.1.0.16-->
<svg stroke-width="0.501" stroke-linejoin="bevel" fill-rule="evenodd" xmlns:xlink="http://www.w3.org/1999/xlink" xmlns="http://www.w3.org/2000/svg" version="1.1" overflow="visible" width="600" height="450" viewBox="0 0 600 450">
 <defs>
	</defs>
 <g id="Document" fill="none" stroke="black" font-family="Times New Roman" font-size="16" transform="scale(1 -1)">
  <g id="Spread" transform="translate(0 -450)">
   <g id="Layer 1">
    <g id="Group" fill="#006cad" stroke="none">
     <path d="M 482.926,86.713 L 477.893,91.747 C 477.367,92.273 476.993,91.799 476.465,91.273 L 476.346,91.153 C 475.82,90.628 475.343,90.25 475.869,89.723 L 480.903,84.688 C 481.429,84.162 482.472,84.112 482.692,84.809 L 482.807,84.924 C 483.603,85.242 483.454,86.184 482.926,86.713 Z" marker-start="none" marker-end="none"/>
     <path d="M 475.946,91.786 C 476.472,92.313 477.187,92.452 476.66,92.979 L 474.18,95.46 C 473.654,95.985 472.799,95.985 472.272,95.46 L 472.157,95.344 C 471.63,94.817 471.63,93.963 472.157,93.436 L 474.637,90.956 C 475.163,90.429 475.299,91.14 475.826,91.666 L 475.946,91.786 Z" marker-start="none" marker-end="none"/>
     <path d="M 478.863,91.451 C 479.071,91.242 479.409,91.242 479.617,91.451 C 479.825,91.659 479.825,91.996 479.617,92.204 L 474.778,97.043 C 474.569,97.251 474.233,97.251 474.023,97.043 C 473.816,96.835 473.816,96.498 474.023,96.289 L 478.863,91.451 Z" marker-start="none" marker-end="none"/>
     <path d="M 472.349,96.498 L 472.129,96.716 C 471.817,97.028 471.311,97.028 471,96.716 C 470.687,96.404 470.687,95.897 471,95.586 L 471.217,95.368 C 471.529,95.056 471.559,95.533 471.871,95.845 C 472.183,96.157 472.659,96.187 472.349,96.498 Z" marker-start="none" marker-end="none"/>
     <path d="M 484.466,83.667 L 483.693,84.916 C 483.578,85.031 483.153,84.793 483.038,84.678 C 482.923,84.563 482.685,84.138 482.8,84.023 L 484.05,83.25 C 484.165,83.135 484.352,83.135 484.467,83.25 C 484.582,83.363 484.582,83.551 484.466,83.667 Z" marker-start="none" marker-end="none"/>
    </g>
    <g id="Group_1" fill="#006cad" stroke="none">
     <path d="M 475.086,181.248 C 475.591,179.761 476.618,178.537 477.621,178.537 C 478.623,178.537 479.647,179.755 480.153,181.237 C 480.156,181.237 480.159,181.236 480.161,181.236 C 480.516,181.236 481.12,181.619 481.12,182.091 C 481.12,182.564 480.833,182.947 480.479,182.947 C 480.477,182.947 480.475,182.946 480.473,182.946 C 480.474,182.994 480.479,183.041 480.479,183.088 C 480.479,185.251 479.024,186.369 477.621,186.369 C 476.218,186.369 474.764,185.251 474.764,183.088 C 474.764,183.037 474.768,182.985 474.77,182.935 C 474.46,182.874 474.222,182.521 474.222,182.091 C 474.222,181.659 474.728,181.305 475.086,181.248 Z" marker-start="none" marker-end="none"/>
     <path d="M 480.151,178.564 C 479.762,177.758 478.95,176.123 478.465,175.534 C 478.465,175.534 478.465,175.752 478.465,176.11 C 478.465,176.467 478.187,176.903 478.187,177.141 C 478.187,177.379 478.484,177.439 478.484,177.737 C 478.484,178.034 478.319,178.034 477.836,178.034 C 477.795,178.034 477.662,178.034 477.621,178.034 C 477.138,178.034 476.973,178.034 476.973,177.737 C 476.973,177.439 477.271,177.38 477.271,177.141 C 477.271,176.903 476.993,176.466 476.993,176.11 C 476.993,175.752 476.993,175.534 476.993,175.534 C 476.498,176.134 475.663,177.821 475.285,178.61 C 472.811,178.005 471,176.684 471,176.684 L 471,172.994 L 477.62,172.994 L 484.242,172.994 L 484.242,176.684 C 484.243,176.684 482.526,177.94 480.151,178.564 Z" marker-start="none" marker-end="none"/>
    </g>
    <path d="M 482.397,142.156 L 473.512,142.156 C 472.665,142.156 471.98,141.47 471.98,140.625 L 471.98,129.526 C 471.98,128.68 472.665,127.996 473.512,127.996 L 482.397,127.996 C 483.243,127.996 483.928,128.68 483.928,129.526 L 483.928,140.625 C 483.928,141.47 483.243,142.156 482.397,142.156 Z M 473.512,140.921 L 475.52,140.921 C 475.667,140.251 476.263,139.75 476.976,139.75 L 478.932,139.75 C 479.646,139.75 480.241,140.251 480.388,140.921 L 482.397,140.921 C 482.56,140.921 482.693,140.788 482.693,140.625 L 482.693,137.417 L 473.215,137.417 L 473.215,140.625 C 473.215,140.788 473.348,140.921 473.512,140.921 Z M 473.215,132.887 L 473.215,136.594 L 475.5,136.594 C 475.587,135.851 476.21,135.272 476.976,135.272 L 478.931,135.272 C 479.697,135.272 480.321,135.851 480.405,136.594 L 482.692,136.594 L 482.692,132.887 L 473.215,132.887 Z M 482.397,129.231 L 473.512,129.231 C 473.348,129.231 473.216,129.364 473.216,129.526 L 473.216,132.064 L 475.501,132.064 C 475.587,131.321 476.21,130.742 476.976,130.742 L 478.932,130.742 C 479.698,130.742 480.322,131.321 480.406,132.064 L 482.692,132.064 L 482.692,129.526 C 482.692,129.363 482.559,129.231 482.397,129.231 Z" fill="#006cad" stroke="none" marker-start="none" marker-end="none"/>
    <path d="M 371.336,143.383 L 431.867,143.383 L 431.867,203.914 L 371.336,203.914 L 371.336,143.383 Z" stroke-width="0.5" stroke="#000000" fill="#000000" stroke-linejoin="miter" marker-start="none" marker-end="none" stroke-miterlimit="79.8403193612775"/>
    <path d="M 398.996,168.75 C 398.17,168.75 397.5,169.42 397.5,170.246 L 397.5,174.979 C 397.5,175.804 398.17,176.474 398.996,176.474 L 405.681,176.474 C 406.506,176.474 407.176,175.804 407.176,174.979 L 407.176,170.246 C 407.176,169.42 406.506,168.75 405.681,168.75 L 398.996,168.75 Z M 405.543,169.875 L 402.32,172.204 L 399.097,169.875 L 405.543,169.875 Z M 406.051,170.432 L 406.051,174.9 L 402.96,172.666 L 406.051,170.432 Z M 398.625,170.457 L 401.681,172.666 L 398.625,174.875 L 398.625,170.457 Z M 402.32,173.128 L 405.392,175.349 L 399.248,175.349 L 402.32,173.128 Z" fill="#ffffff" fill-rule="evenodd" stroke="none" stroke-width="0.5" marker-start="none" marker-end="none" stroke-miterlimit="79.8403193612775"/>
   </g>
  </g>
 </g>
</svg>
