<?xml version="1.0" standalone="no"?>
<!DOCTYPE svg PUBLIC "-//W3C//DTD SVG 20010904//EN"
 "http://www.w3.org/TR/2001/REC-SVG-20010904/DTD/svg10.dtd">
<svg version="1.0" xmlns="http://www.w3.org/2000/svg"
 width="50.000000pt" height="74.000000pt" viewBox="0 0 50.000000 74.000000"
 preserveAspectRatio="xMidYMid meet">

<g transform="translate(0.000000,74.000000) scale(0.100000,-0.100000)"
fill="#000000" stroke="none">
<path d="M0 370 l0 -370 250 0 250 0 0 370 0 370 -250 0 -250 0 0 -370z m323
314 c32 -17 113 -84 101 -84 -17 0 -162 84 -158 92 8 12 21 10 57 -8z m0 -98
c15 -14 27 -27 27 -30 0 -4 -96 45 -138 71 -12 8 -20 18 -17 23 7 12 89 -30
128 -64z m-155 10 c26 -13 55 -34 65 -46 11 -13 25 -19 34 -16 12 5 13 3 5 -7
-7 -8 -13 -64 -14 -131 l-3 -118 -49 63 c-58 74 -84 129 -93 196 -3 27 -13 52
-22 57 -13 8 -13 10 4 17 11 4 21 8 23 8 1 1 24 -10 50 -23z"/>
</g>
</svg>
