<?xml version="1.0" encoding="utf-8"?>
<!-- Generator: Adobe Illustrator 19.2.1, SVG Export Plug-In . SVG Version: 6.00 Build 0)  -->
<svg version="1.1" id="Слой_1" xmlns="http://www.w3.org/2000/svg" xmlns:xlink="http://www.w3.org/1999/xlink" x="0px" y="0px"
	 viewBox="0 0 400 300" style="enable-background:new 0 0 400 300;" xml:space="preserve">
<style type="text/css">
	.st0{fill:#2B5583;}
	.st1{fill:#1C75BC;}
	.st2{fill:#2B3990;}
</style>
<g>
	<path class="st0" d="M212.6,120.5c5.4-6,13.4-9,23.6-9h61.1c-0.8-1.8-1.7-3.5-2.7-5.3h-64.4c-9,0-16,2.6-21,7.7
		c-8.9,9.1-8.6,23.7-8.6,23.8l0,121.5c1.1,0,2.2,0.1,3.3,0.1c0.5,0,0.9,0,1.4,0V142.5C205.3,140.6,204.9,129.1,212.6,120.5z"/>
	<path class="st1" d="M174.3,137.8c-1.8-1.9-4.4-2.9-8-2.9h-63.5c-1.4,6.8-2.2,13.9-2.2,21.1c0,47.9,32.5,88.1,76.7,99.9l0-107.4
		C177.4,148.5,177.9,141.7,174.3,137.8z"/>
	<path class="st0" d="M202.5,107.5c6.8-7,16.1-10.6,27.7-10.6h58.6c-18.7-26.8-49.7-44.3-84.8-44.3c-35.1,0-66.1,17.5-84.8,44.3
		h88.1c-3.2,1.8-6.1,4-8.7,6.7c-0.8,0.9-1.6,1.8-2.3,2.7h-82.9c-0.9,1.7-1.8,3.5-2.7,5.3h82c-1.8,3.1-3.1,6.3-4.1,9.3h-81.8
		c-0.6,1.5-1.1,3.1-1.6,4.7h61.1c6.2,0,11.3,2,14.9,5.9c6,6.5,5.7,15.7,5.6,17.6v108.8c1.5,0.3,3.1,0.5,4.7,0.7V137.9
		C191.4,137.3,190.9,119.6,202.5,107.5z"/>
	<path class="st0" d="M236.2,120.9c-7.5,0-13.1,2-16.7,5.9c-5.5,6-4.8,15-4.8,15.1l0,0.4v116.4c1.6-0.2,3.1-0.4,4.7-0.6V149.1
		c-0.1-1.8-0.4-11.1,5.6-17.6c3.6-3.9,8.6-5.9,14.9-5.9h63c-0.5-1.6-1-3.1-1.6-4.7H236.2z"/>
	<path class="st2" d="M231.9,137.8c-3.6,3.9-3.1,10.7-3.1,10.7l0,0.4v107.4c45.1-11.1,78.6-51.8,78.6-100.4c0-7.2-0.7-14.3-2.2-21.1
		h-65.3C236.3,134.9,233.7,135.8,231.9,137.8z"/>
</g>
</svg>
